<svg width="70" height="70" viewBox="0 0 70 70" fill="none" xmlns="http://www.w3.org/2000/svg">
<g clip-path="url(#clip0_206_12)">
<path d="M21.875 65.625C24.2912 65.625 26.25 63.6662 26.25 61.25C26.25 58.8338 24.2912 56.875 21.875 56.875C19.4588 56.875 17.5 58.8338 17.5 61.25C17.5 63.6662 19.4588 65.625 21.875 65.625Z" fill="white"/>
<path d="M52.5 65.625C54.9162 65.625 56.875 63.6662 56.875 61.25C56.875 58.8338 54.9162 56.875 52.5 56.875C50.0838 56.875 48.125 58.8338 48.125 61.25C48.125 63.6662 50.0838 65.625 52.5 65.625Z" fill="white"/>
<path d="M61.25 15.3125H12.7313L10.9375 6.12496C10.8352 5.62342 10.5603 5.17362 10.1606 4.85386C9.76093 4.5341 9.26176 4.36464 8.75 4.37496H0V8.74996H6.95625L15.3125 50.75C15.4148 51.2515 15.6897 51.7013 16.0894 52.0211C16.4891 52.3408 16.9882 52.5103 17.5 52.5H56.875V48.125H19.2937L17.5 39.375H56.875C57.3807 39.3873 57.875 39.2241 58.2738 38.913C58.6727 38.6019 58.9514 38.1622 59.0625 37.6687L63.4375 17.9812C63.5108 17.6566 63.5091 17.3196 63.4325 16.9958C63.3559 16.672 63.2065 16.3699 62.9955 16.1126C62.7846 15.8552 62.5177 15.6494 62.2153 15.5108C61.9128 15.3721 61.5826 15.3043 61.25 15.3125ZM55.125 35H16.6687L13.6062 19.6875H58.5156L55.125 35Z" fill="white"/>
</g>
<defs>
<clipPath id="clip0_206_12">
<rect width="70" height="70" fill="white"/>
</clipPath>
</defs>
</svg>
