<svg width="70" height="70" viewBox="0 0 70 70" fill="none" xmlns="http://www.w3.org/2000/svg">
<path d="M38.4189 48.8368H32.298C27.9678 48.8368 24.4189 45.1903 24.4189 40.6972C24.4189 39.3623 25.5259 38.2554 26.8608 38.2554C28.1957 38.2554 29.3027 39.3623 29.3027 40.6972C29.3027 42.4879 30.6376 43.953 32.298 43.953H38.4189C39.6887 43.953 40.698 42.8135 40.698 41.4135C40.698 39.6554 40.2096 39.3949 39.1027 39.0042L29.3027 35.5856C27.2189 34.8693 24.4189 33.3391 24.4189 28.553C24.4189 24.4834 27.6422 21.1299 31.5817 21.1299H37.7027C42.0329 21.1299 45.5817 24.7764 45.5817 29.2693C45.5817 30.6042 44.4748 31.7112 43.1399 31.7112C41.805 31.7112 40.698 30.6042 40.698 29.2693C40.698 27.4787 39.3631 26.0136 37.7027 26.0136H31.5817C30.312 26.0136 29.3027 27.1531 29.3027 28.553C29.3027 30.3112 29.791 30.5716 30.898 30.9623L40.698 34.381C42.7817 35.0972 45.5817 36.6275 45.5817 41.4135C45.5817 45.5158 42.3585 48.8368 38.4189 48.8368Z" fill="white"/>
<path d="M34.9995 52.0933C33.6647 52.0933 32.5577 50.9863 32.5577 49.6514V20.3491C32.5577 19.0142 33.6647 17.9072 34.9995 17.9072C36.3344 17.9072 37.4414 19.0142 37.4414 20.3491V49.6514C37.4414 50.9863 36.3344 52.0933 34.9995 52.0933Z" fill="white"/>
<path d="M35 70C15.693 70 0 54.307 0 35C0 15.693 15.693 0 35 0C36.3349 0 37.4419 1.10698 37.4419 2.44186C37.4419 3.77674 36.3349 4.88372 35 4.88372C18.3953 4.88372 4.88372 18.3953 4.88372 35C4.88372 51.6046 18.3953 65.1163 35 65.1163C51.6046 65.1163 65.1163 51.6046 65.1163 35C65.1163 33.6651 66.2233 32.5581 67.5581 32.5581C68.893 32.5581 70 33.6651 70 35C70 54.307 54.307 70 35 70Z" fill="white"/>
<path d="M64.3021 21.1641H51.2788C49.944 21.1641 48.837 20.0571 48.837 18.7222V5.69894C48.837 4.36406 49.944 3.25708 51.2788 3.25708C52.6137 3.25708 53.7207 4.36406 53.7207 5.69894V16.2803H64.3021C65.637 16.2803 66.7439 17.3873 66.7439 18.7222C66.7439 20.0571 65.637 21.1641 64.3021 21.1641Z" fill="white"/>
<path d="M51.2767 21.1615C50.6581 21.1615 50.0395 20.9336 49.5511 20.4452C48.6069 19.501 48.6069 17.9382 49.5511 16.994L65.8302 0.714975C66.7744 -0.229211 68.3372 -0.229211 69.2814 0.714975C70.2255 1.65916 70.2255 3.22195 69.2814 4.16614L53.0023 20.4452C52.5139 20.9336 51.8953 21.1615 51.2767 21.1615Z" fill="white"/>
</svg>
