<svg width="70" height="70" viewBox="0 0 70 70" fill="none" xmlns="http://www.w3.org/2000/svg">
<path d="M39.6465 46.2216C39.3906 45.9416 39.069 45.7338 38.7343 45.5588C38.0081 45.1804 37.214 44.9507 36.4243 44.7429V50.8526C37.704 50.7082 39.174 50.2423 39.8456 49.0479C40.1671 48.477 40.2306 47.7748 40.0993 47.1404C40.0293 46.797 39.8828 46.4798 39.6443 46.2195L39.6465 46.2216ZM39.8412 49.061C39.8434 49.0566 39.8456 49.0545 39.8478 49.0501C39.8456 49.0545 39.8434 49.0588 39.8412 49.061ZM30.4218 36.4523C30.2009 36.7738 30.0631 37.1391 30.0259 37.5263C29.9887 37.9135 30.0084 38.3466 30.1571 38.7141C30.2971 39.062 30.5924 39.3201 30.8965 39.5279C31.2378 39.7598 31.614 39.9413 31.9946 40.0945C32.3162 40.2235 32.6749 40.3482 33.0643 40.4663V34.9363C32.0821 35.1463 31.0081 35.5926 30.4218 36.4523ZM39.8718 49.0042C39.8631 49.0195 39.8565 49.0326 39.8478 49.0501C39.8587 49.0326 39.8631 49.0173 39.8718 49.0042ZM39.9046 48.9473C39.9068 48.9429 39.9068 48.9429 39.9046 48.9473V48.9473ZM38.579 15.7082C43.7765 11.342 47.2481 1.50915 45.1109 1.07821C42.2715 0.507272 36.1049 3.01415 33.1256 3.45602C28.8993 3.96571 24.2946 -1.12679 21.7112 1.71258C19.6112 4.0204 23.2184 12.416 28.8621 16.0735C12.0249 24.3488 -11.6416 65.8938 29.6453 68.9082C86.774 73.0798 58.1681 23.7713 38.579 15.7082ZM43.4856 48.4704C43.3106 50.0891 42.4509 51.5548 41.169 52.5479C39.8149 53.5979 38.1153 54.0857 36.4265 54.2235V56.0129C36.4265 56.492 36.2165 56.9557 35.8599 57.2729C35.3678 57.7082 34.6437 57.8154 34.0443 57.5398C33.4537 57.2685 33.0665 56.6626 33.0665 56.0129V54.0573C32.7778 54.0026 32.489 53.937 32.2046 53.8582C30.6274 53.4251 29.164 52.5807 28.0943 51.3295C27.5628 50.706 27.1274 49.9995 26.8278 49.236C26.749 49.037 26.679 48.8335 26.6178 48.6279C26.5631 48.442 26.504 48.2538 26.4843 48.0591C26.4515 47.7332 26.5149 47.4029 26.6681 47.112C26.9787 46.517 27.6371 46.156 28.3065 46.2151C28.9671 46.2742 29.5446 46.7313 29.7524 47.3591C29.8159 47.5538 29.8596 47.7507 29.9318 47.9432C30.004 48.1357 30.0893 48.3195 30.1899 48.4945C30.389 48.8423 30.6406 49.1616 30.9271 49.4395C31.5199 50.0104 32.2768 50.3823 33.0665 50.6054V43.9576C31.5243 43.5573 29.934 43.0432 28.6609 42.0523C28.0418 41.571 27.5168 40.9738 27.1734 40.2651C26.8103 39.517 26.6593 38.6857 26.6549 37.8588C26.6484 37.0188 26.8081 36.1876 27.1581 35.4241C27.4862 34.7088 27.9587 34.0657 28.5362 33.532C29.7743 32.3923 31.4171 31.7579 33.0665 31.5238V29.6666C33.0665 29.1876 33.2765 28.7238 33.6331 28.4088C34.1253 27.9735 34.8493 27.8663 35.4487 28.1398C36.0393 28.411 36.4265 29.017 36.4265 29.6666V31.5151C36.6453 31.5435 36.8662 31.5763 37.0828 31.6157C38.7015 31.9088 40.2853 32.5782 41.4709 33.7441C42.0309 34.2976 42.4903 34.956 42.814 35.6735C42.9037 35.8748 42.9824 36.0804 43.0524 36.2882C43.1159 36.4829 43.1793 36.6842 43.2099 36.8876C43.2581 37.2113 43.2099 37.5482 43.0699 37.8457C42.7856 38.4538 42.1468 38.8432 41.4753 38.8126C40.8146 38.7841 40.2174 38.3532 39.9812 37.7363C39.9112 37.5526 39.8762 37.3579 39.804 37.1763C39.7318 36.9948 39.6378 36.8132 39.5306 36.647C39.3206 36.3232 39.0471 36.0432 38.7365 35.8135C38.0628 35.317 37.2468 35.0566 36.4309 34.9123V41.2757C37.3999 41.5076 38.3712 41.7613 39.3009 42.1288C40.7053 42.6823 42.0374 43.5332 42.8031 44.872C42.6849 44.6642 42.569 44.4607 42.8074 44.8785C43.0415 45.2898 42.9299 45.0929 42.8118 44.8873C43.4221 45.9635 43.6212 47.2476 43.4899 48.4704H43.4856ZM39.8237 49.0938C39.8149 49.1113 39.8062 49.1266 39.7974 49.1376C39.804 49.1266 39.8128 49.1113 39.8237 49.0938Z" fill="white"/>
</svg>
