<svg width="88" height="70" viewBox="0 0 88 70" fill="none" xmlns="http://www.w3.org/2000/svg">
<g clip-path="url(#clip0_131_571)">
<path d="M83.125 8.75H4.375C1.95918 8.75 0 10.7092 0 13.125V56.875C0 59.2908 1.95918 61.25 4.375 61.25H83.125C85.5408 61.25 87.5 59.2908 87.5 56.875V13.125C87.5 10.7092 85.5408 8.75 83.125 8.75ZM6.5625 54.6875V45.9375C11.3955 45.9375 15.3125 49.8545 15.3125 54.6875H6.5625ZM6.5625 24.0625V15.3125H15.3125C15.3125 20.1455 11.3955 24.0625 6.5625 24.0625ZM43.75 48.125C37.7084 48.125 32.8125 42.2475 32.8125 35C32.8125 27.7512 37.7098 21.875 43.75 21.875C49.7902 21.875 54.6875 27.7512 54.6875 35C54.6875 42.2502 49.7889 48.125 43.75 48.125ZM80.9375 54.6875H72.1875C72.1875 49.8545 76.1045 45.9375 80.9375 45.9375V54.6875ZM80.9375 24.0625C76.1045 24.0625 72.1875 20.1455 72.1875 15.3125H80.9375V24.0625Z" fill="white"/>
</g>
<defs>
<clipPath id="clip0_131_571">
<rect width="87.5" height="70" fill="white"/>
</clipPath>
</defs>
</svg>
